<svg width="175" height="20" viewBox="0 0 175 20" fill="none" xmlns="http://www.w3.org/2000/svg">
<path d="M52.4168 11.6018H51.9786L48.2236 6.39421V15.0859H46V3.13281H48.5604L52.2484 8.27235L55.9363 3.13281H58.4796V15.0859H56.2561V6.41155L52.4155 11.6018H52.4168Z" fill="#16181B"/>
<path d="M64.4075 13.323C65.168 13.323 66.1476 13.0322 66.6388 12.5372L67.9564 13.8526C67.0599 14.7585 65.6578 15.2188 64.3732 15.2188C61.5004 15.2188 59.7933 13.4084 59.7933 10.7268C59.7933 8.0453 61.5175 6.32031 64.2214 6.32031C66.7734 6.32031 68.4633 7.8065 68.4633 10.7428C68.4633 10.999 68.4462 11.2551 68.429 11.5286H61.9228C62.0575 12.5706 62.9368 13.3217 64.4075 13.3217V13.323ZM64.2887 8.16537C63.1559 8.16537 62.278 8.71235 61.9558 9.80498H66.4513C66.3166 8.71235 65.4875 8.16537 64.2887 8.16537Z" fill="#16181B"/>
<path d="M73.8658 13.323C74.6262 13.323 75.6059 13.0322 76.097 12.5372L77.4146 13.8526C76.5182 14.7585 75.1161 15.2188 73.8315 15.2188C70.9586 15.2188 69.2515 13.4084 69.2515 10.7268C69.2515 8.0453 70.9758 6.32031 73.6796 6.32031C76.2317 6.32031 77.9216 7.8065 77.9216 10.7428C77.9216 10.999 77.9044 11.2551 77.8873 11.5286H71.3811C71.5158 12.5706 72.395 13.3217 73.8658 13.3217V13.323ZM73.747 8.16537C72.6142 8.16537 71.7362 8.71235 71.4141 9.80498H75.9095C75.7749 8.71235 74.9458 8.16537 73.747 8.16537Z" fill="#16181B"/>
<path d="M82.0196 6.59593H84.2888V8.37162H82.0027V12.0419C82.0027 12.8373 82.4197 13.2257 83.0701 13.2257C83.3868 13.2257 83.7375 13.124 84.0542 12.972L84.6212 14.7305C83.9877 15.0014 83.4703 15.0859 82.769 15.0859C81.0668 15.0859 79.9824 14.0713 79.9824 12.0419V8.37162H78.447V6.59593H79.9824V4.41463L82.0183 4.19531V6.59725L82.0196 6.59593Z" fill="#16181B"/>
<path d="M86.5916 3C87.1828 3 87.7739 3.40778 87.7739 4.2074C87.7739 5.00702 87.1828 5.4148 86.5916 5.4148C86.0005 5.4148 85.4094 5.02429 85.4094 4.2074C85.4094 3.39051 86.0005 3 86.5916 3ZM87.5931 14.9531H85.5902V6.53719H87.5931V14.9531Z" fill="#16181B"/>
<path d="M95.5908 10.4828C95.5908 9.19836 94.8893 8.22162 93.6048 8.22162C92.3204 8.22162 91.5015 9.30005 91.5015 10.5859V14.9531H89.4817V6.50897H91.3007L91.4337 7.5874C92.2852 6.64545 93.0859 6.32031 94.1382 6.32031C96.0746 6.32031 97.6263 7.81085 97.6263 10.4655V14.9531H95.5895V10.4828H95.5908Z" fill="#16181B"/>
<path d="M107.871 6.8181L106.834 8.04799C107.553 8.91904 107.788 9.68739 107.788 10.5584C107.788 12.0618 107.102 13.0862 105.747 13.7172C107.486 14.3495 107.788 15.63 107.788 16.4491C107.788 18.8395 105.496 20 103.29 20C100.43 20 98.7576 18.5313 98.8412 16.1236H100.865C100.781 17.2855 102.003 17.9844 103.29 17.9844C104.426 17.9844 105.665 17.4895 105.665 16.4477C105.665 15.4059 104.863 14.791 103.324 14.791C100.597 14.791 98.8085 13.2036 98.8085 10.5558C98.8085 7.72117 101.016 6.2872 103.324 6.2872C103.959 6.2872 104.878 6.42326 105.448 6.81677L106.368 5.65625L107.873 6.81677L107.871 6.8181ZM100.848 10.5571C100.848 12.0258 101.986 12.8795 103.324 12.8795C104.661 12.8795 105.748 11.9911 105.748 10.5571C105.748 9.12313 104.661 8.2174 103.324 8.2174C101.986 8.2174 100.848 8.98574 100.848 10.5571Z" fill="#16181B"/>
<path d="M111.661 14.9531H109.449V3.01732C111.275 3.01732 113.152 3 114.978 3C117.86 3 119.301 5.09786 119.301 7.19438C119.301 9.29091 117.86 11.4061 114.978 11.4394H111.661V14.9518V14.9531ZM114.978 9.37749C116.385 9.37749 117.089 8.3199 117.089 7.26365C117.089 6.20739 116.385 5.1498 114.978 5.1498H111.661V9.37882H114.978V9.37749Z" fill="#16181B"/>
<path d="M128.627 6.52617V14.9621H126.707L126.607 13.7297C126.123 14.7228 124.871 15.2188 123.936 15.2188C121.481 15.2188 119.695 13.6962 119.695 10.7354C119.695 7.77465 121.581 6.32031 123.986 6.32031C125.106 6.32031 126.14 6.85098 126.608 7.6891L126.675 6.52617H128.628H128.627ZM121.731 10.7354C121.731 12.3435 122.817 13.3019 124.169 13.3019C125.772 13.3019 126.573 12.0187 126.573 10.7354C126.573 9.45221 125.772 8.18635 124.169 8.18635C122.817 8.18635 121.731 9.12739 121.731 10.7354Z" fill="#16181B"/>
<path d="M134.489 15.2188C132.08 15.2188 130.073 13.7642 130.073 10.7869C130.073 7.80962 132.078 6.32031 134.489 6.32031C135.686 6.32031 136.563 6.66256 137.49 7.56898L136.192 8.95535C135.703 8.49278 135.113 8.28824 134.523 8.28824C133.125 8.28824 132.13 9.31498 132.13 10.7869C132.13 12.3952 133.208 13.2174 134.489 13.2174C135.146 13.2174 135.787 13.0463 136.31 12.5155L137.692 13.8845C136.731 14.8431 135.72 15.2188 134.49 15.2188H134.489Z" fill="#16181B"/>
<path d="M140.66 9.96426L143.444 6.61722H145.893V6.7361L142.522 10.5402L146.363 14.8012V14.9531H143.896L140.659 11.1834V14.9531H138.612V3.13281H140.659V9.96294L140.66 9.96426Z" fill="#16181B"/>
<path d="M155.031 6.52617V14.9621H153.111L153.011 13.7297C152.527 14.7228 151.275 15.2188 150.34 15.2188C147.885 15.2188 146.1 13.6962 146.1 10.7354C146.1 7.77465 147.986 6.32031 150.391 6.32031C151.51 6.32031 152.544 6.85098 153.012 7.6891L153.079 6.52617H155.033H155.031ZM148.136 10.7354C148.136 12.3435 149.221 13.3019 150.573 13.3019C152.176 13.3019 152.977 12.0187 152.977 10.7354C152.977 9.45221 152.176 8.18635 150.573 8.18635C149.221 8.18635 148.136 9.12739 148.136 10.7354Z" fill="#16181B"/>
<path d="M165.54 6.8181L164.503 8.04799C165.222 8.91904 165.457 9.68739 165.457 10.5584C165.457 12.0618 164.771 13.0862 163.416 13.7172C165.155 14.3495 165.457 15.63 165.457 16.4491C165.457 18.8395 163.165 20 160.959 20C158.099 20 156.427 18.5313 156.51 16.1236H158.534C158.45 17.2855 159.671 17.9844 160.959 17.9844C162.095 17.9844 163.334 17.4895 163.334 16.4477C163.334 15.4059 162.532 14.791 160.993 14.791C158.266 14.791 156.478 13.2036 156.478 10.5558C156.478 7.72117 158.686 6.2872 160.993 6.2872C161.628 6.2872 162.547 6.42326 163.117 6.81677L164.037 5.65625L165.542 6.81677L165.54 6.8181ZM158.517 10.5571C158.517 12.0258 159.655 12.8795 160.993 12.8795C162.331 12.8795 163.417 11.9911 163.417 10.5571C163.417 9.12313 162.331 8.2174 160.993 8.2174C159.655 8.2174 158.517 8.98574 158.517 10.5571Z" fill="#16181B"/>
<path d="M170.944 13.323C171.705 13.323 172.684 13.0322 173.175 12.5372L174.493 13.8526C173.597 14.7585 172.194 15.2188 170.91 15.2188C168.037 15.2188 166.33 13.4084 166.33 10.7268C166.33 8.0453 168.054 6.32031 170.758 6.32031C173.31 6.32031 175 7.8065 175 10.7428C175 10.999 174.983 11.2551 174.966 11.5286H168.46C168.594 12.5706 169.473 13.3217 170.944 13.3217V13.323ZM170.825 8.16537C169.693 8.16537 168.815 8.71235 168.493 9.80498H172.988C172.853 8.71235 172.024 8.16537 170.825 8.16537Z" fill="#16181B"/>
<g clip-path="url(#clip0_2_919)">
<path d="M23.0491 1.22821C22.9546 4.90544 22.3538 7.95943 22.3538 7.95943C21.959 10.0107 15.5194 12.6547 15.6606 9.63874L15.8535 8.70706C16.0373 7.71064 15.2825 7.88835 14.599 8.27803C10.7215 10.4067 7.59236 14.0611 6.43495 18.2562C6.28866 18.8312 5.97795 19 5.43808 19H1.09845C0.192202 19 -0.198779 18.6763 0.0976933 17.7205C2.79313 8.25518 12.1676 0.662091 21.9564 0.00458195C22.6464 -0.0411137 23.0504 0.247023 23.0504 1.22821H23.0491Z" fill="url(#paint0_radial_2_919)"/>
<path d="M35.9988 1.2236C35.8406 6.73613 34.6135 12.6021 32.3047 18.1969C32.1062 18.6897 31.922 19 31.1827 19H26.9372C26.2537 19 25.6764 18.9493 26.1291 17.7865C26.6156 16.5376 27.8802 13.2823 28.5106 10.26C28.6326 9.67353 28.3615 9.17067 27.648 9.79767L23.4545 13.4849C20.8214 15.8004 17.733 15.3381 16.4255 14.06C15.118 12.7832 15.3043 11.1745 15.8633 8.67667C15.5948 10.5323 18.9665 10.9364 21.3765 8.816L30.8078 0.5206C31.3111 0.0785334 31.638 0 32.197 0H34.9832C35.7679 0 36.0196 0.4826 35.9988 1.2236Z" fill="#0050FF"/>
</g>
<defs>
<radialGradient id="paint0_radial_2_919" cx="0" cy="0" r="1" gradientUnits="userSpaceOnUse" gradientTransform="translate(19.1147 11.1645) scale(7.88436 7.73018)">
<stop stop-color="#002E85"/>
<stop offset="1" stop-color="#0050FF"/>
</radialGradient>
<clipPath id="clip0_2_919">
<rect width="36" height="19" fill="white"/>
</clipPath>
</defs>
</svg>
